<mxfile host="app.diagrams.net" modified="2022-02-24T06:04:35.546Z" agent="5.0 (Macintosh; Intel Mac OS X 10_15_7) AppleWebKit/605.1.15 (KHTML, like Gecko) Version/14.1.2 Safari/605.1.15" etag="e4eDjdKYXE-mFiwht279" version="16.6.2" type="github">
  <diagram id="aV-KjRm5k6Hzm0Z0yOgn" name="Page-1">
    <mxGraphModel dx="946" dy="645" grid="1" gridSize="10" guides="1" tooltips="1" connect="1" arrows="1" fold="1" page="1" pageScale="1" pageWidth="827" pageHeight="1169" math="0" shadow="0">
      <root>
        <mxCell id="0" />
        <mxCell id="1" parent="0" />
        <mxCell id="QECbDP-TXOVA0_4xVjSr-7" style="edgeStyle=orthogonalEdgeStyle;curved=1;rounded=0;orthogonalLoop=1;jettySize=auto;html=1;" parent="1" source="QECbDP-TXOVA0_4xVjSr-1" edge="1">
          <mxGeometry relative="1" as="geometry">
            <mxPoint x="470" y="189.5" as="targetPoint" />
          </mxGeometry>
        </mxCell>
        <mxCell id="QECbDP-TXOVA0_4xVjSr-1" value="charging" style="ellipse;whiteSpace=wrap;html=1;" parent="1" vertex="1">
          <mxGeometry x="125" y="153" width="130" height="72" as="geometry" />
        </mxCell>
        <mxCell id="QECbDP-TXOVA0_4xVjSr-3" style="edgeStyle=orthogonalEdgeStyle;rounded=0;orthogonalLoop=1;jettySize=auto;html=1;entryX=1;entryY=0;entryDx=0;entryDy=0;curved=1;" parent="1" source="QECbDP-TXOVA0_4xVjSr-1" target="QECbDP-TXOVA0_4xVjSr-1" edge="1">
          <mxGeometry relative="1" as="geometry">
            <Array as="points">
              <mxPoint x="165" y="109" />
              <mxPoint x="236" y="109" />
            </Array>
          </mxGeometry>
        </mxCell>
        <mxCell id="QECbDP-TXOVA0_4xVjSr-4" value="" style="endArrow=classic;html=1;rounded=0;curved=1;entryX=0;entryY=0.5;entryDx=0;entryDy=0;" parent="1" target="QECbDP-TXOVA0_4xVjSr-1" edge="1">
          <mxGeometry width="50" height="50" relative="1" as="geometry">
            <mxPoint x="40" y="189" as="sourcePoint" />
            <mxPoint x="440" y="369" as="targetPoint" />
          </mxGeometry>
        </mxCell>
        <mxCell id="QECbDP-TXOVA0_4xVjSr-5" value="not enough battery" style="text;html=1;strokeColor=none;fillColor=none;align=center;verticalAlign=middle;whiteSpace=wrap;rounded=0;" parent="1" vertex="1">
          <mxGeometry x="160" y="70" width="60" height="30" as="geometry" />
        </mxCell>
        <mxCell id="QECbDP-TXOVA0_4xVjSr-9" value="&lt;div class=&quot;page&quot; title=&quot;Page 3&quot; style=&quot;color: rgb(0 , 0 , 0) ; font-style: normal ; font-weight: normal ; letter-spacing: normal ; text-indent: 0px ; text-transform: none ; word-spacing: 0px ; text-decoration: none&quot;&gt;&lt;div class=&quot;layoutArea&quot;&gt;&lt;div class=&quot;column&quot;&gt;&lt;p&gt;&lt;span style=&quot;font-size: 12pt ; font-family: &amp;#34;timesnewromanpsmt&amp;#34;&quot;&gt;container is full || (30-minute timer is triggered &amp;amp;&amp;amp; the container is not empty)&lt;/span&gt;&lt;/p&gt;&lt;/div&gt;&lt;/div&gt;&lt;/div&gt;" style="text;html=1;strokeColor=none;fillColor=none;align=center;verticalAlign=middle;whiteSpace=wrap;rounded=0;" parent="1" vertex="1">
          <mxGeometry x="261.5" y="110" width="185" height="79" as="geometry" />
        </mxCell>
        <mxCell id="pubzBBKliFy5d-iKKgvz-37" style="edgeStyle=orthogonalEdgeStyle;rounded=0;orthogonalLoop=1;jettySize=auto;html=1;entryX=0.5;entryY=0;entryDx=0;entryDy=0;fontFamily=Times New Roman;fontSize=15;curved=1;" edge="1" parent="1" source="pubzBBKliFy5d-iKKgvz-3" target="pubzBBKliFy5d-iKKgvz-5">
          <mxGeometry relative="1" as="geometry">
            <Array as="points">
              <mxPoint x="780" y="180" />
            </Array>
          </mxGeometry>
        </mxCell>
        <mxCell id="pubzBBKliFy5d-iKKgvz-3" value="delivery" style="ellipse;whiteSpace=wrap;html=1;" vertex="1" parent="1">
          <mxGeometry x="470" y="149" width="120" height="80" as="geometry" />
        </mxCell>
        <mxCell id="pubzBBKliFy5d-iKKgvz-10" style="rounded=0;orthogonalLoop=1;jettySize=auto;html=1;edgeStyle=orthogonalEdgeStyle;curved=1;startArrow=none;" edge="1" parent="1" source="pubzBBKliFy5d-iKKgvz-11" target="pubzBBKliFy5d-iKKgvz-9">
          <mxGeometry relative="1" as="geometry">
            <Array as="points">
              <mxPoint x="560" y="370" />
            </Array>
          </mxGeometry>
        </mxCell>
        <mxCell id="pubzBBKliFy5d-iKKgvz-31" style="edgeStyle=orthogonalEdgeStyle;curved=1;rounded=0;orthogonalLoop=1;jettySize=auto;html=1;entryX=0.5;entryY=1;entryDx=0;entryDy=0;fontFamily=Times New Roman;fontSize=15;" edge="1" parent="1" source="pubzBBKliFy5d-iKKgvz-5" target="pubzBBKliFy5d-iKKgvz-3">
          <mxGeometry relative="1" as="geometry" />
        </mxCell>
        <mxCell id="pubzBBKliFy5d-iKKgvz-38" style="edgeStyle=orthogonalEdgeStyle;curved=1;rounded=0;orthogonalLoop=1;jettySize=auto;html=1;entryX=0;entryY=0;entryDx=0;entryDy=0;fontFamily=Times New Roman;fontSize=15;" edge="1" parent="1" source="pubzBBKliFy5d-iKKgvz-5" target="QECbDP-TXOVA0_4xVjSr-1">
          <mxGeometry relative="1" as="geometry">
            <Array as="points">
              <mxPoint x="780" y="40" />
              <mxPoint x="500" y="40" />
              <mxPoint x="500" y="30" />
              <mxPoint x="144" y="30" />
            </Array>
          </mxGeometry>
        </mxCell>
        <mxCell id="pubzBBKliFy5d-iKKgvz-39" value="over 10 minutes &amp;amp;&amp;amp; all packages have attempted for delivery" style="edgeLabel;html=1;align=center;verticalAlign=middle;resizable=0;points=[];fontSize=15;fontFamily=Times New Roman;" vertex="1" connectable="0" parent="pubzBBKliFy5d-iKKgvz-38">
          <mxGeometry x="-0.147" y="-1" relative="1" as="geometry">
            <mxPoint as="offset" />
          </mxGeometry>
        </mxCell>
        <mxCell id="pubzBBKliFy5d-iKKgvz-5" value="wait outside&amp;nbsp;" style="ellipse;whiteSpace=wrap;html=1;" vertex="1" parent="1">
          <mxGeometry x="720" y="210" width="120" height="80" as="geometry" />
        </mxCell>
        <mxCell id="pubzBBKliFy5d-iKKgvz-7" value="send verification email" style="text;html=1;strokeColor=none;fillColor=none;align=center;verticalAlign=middle;whiteSpace=wrap;rounded=0;" vertex="1" parent="1">
          <mxGeometry x="595" y="153" width="130" height="27" as="geometry" />
        </mxCell>
        <mxCell id="pubzBBKliFy5d-iKKgvz-19" style="edgeStyle=orthogonalEdgeStyle;curved=1;rounded=0;orthogonalLoop=1;jettySize=auto;html=1;fontFamily=Times New Roman;fontSize=15;" edge="1" parent="1" source="pubzBBKliFy5d-iKKgvz-9" target="pubzBBKliFy5d-iKKgvz-18">
          <mxGeometry relative="1" as="geometry" />
        </mxCell>
        <mxCell id="pubzBBKliFy5d-iKKgvz-34" style="edgeStyle=orthogonalEdgeStyle;curved=1;rounded=0;orthogonalLoop=1;jettySize=auto;html=1;entryX=0.5;entryY=1;entryDx=0;entryDy=0;fontFamily=Times New Roman;fontSize=15;" edge="1" parent="1" source="pubzBBKliFy5d-iKKgvz-9" target="pubzBBKliFy5d-iKKgvz-5">
          <mxGeometry relative="1" as="geometry" />
        </mxCell>
        <mxCell id="pubzBBKliFy5d-iKKgvz-9" value="verification" style="ellipse;whiteSpace=wrap;html=1;" vertex="1" parent="1">
          <mxGeometry x="475" y="470" width="120" height="80" as="geometry" />
        </mxCell>
        <mxCell id="pubzBBKliFy5d-iKKgvz-12" style="edgeStyle=orthogonalEdgeStyle;rounded=0;orthogonalLoop=1;jettySize=auto;html=1;fontFamily=Times New Roman;fontSize=15;curved=1;" edge="1" parent="1" source="pubzBBKliFy5d-iKKgvz-5" target="pubzBBKliFy5d-iKKgvz-5">
          <mxGeometry relative="1" as="geometry">
            <Array as="points">
              <mxPoint x="800" y="290" />
            </Array>
          </mxGeometry>
        </mxCell>
        <mxCell id="pubzBBKliFy5d-iKKgvz-13" value="within 10 minutes&amp;nbsp;" style="text;html=1;strokeColor=none;fillColor=none;align=center;verticalAlign=middle;whiteSpace=wrap;rounded=0;fontFamily=Times New Roman;fontSize=15;" vertex="1" parent="1">
          <mxGeometry x="827" y="270" width="80" height="40" as="geometry" />
        </mxCell>
        <mxCell id="pubzBBKliFy5d-iKKgvz-15" value="fail" style="text;html=1;strokeColor=none;fillColor=none;align=center;verticalAlign=middle;whiteSpace=wrap;rounded=0;fontFamily=Times New Roman;fontSize=15;" vertex="1" parent="1">
          <mxGeometry x="720" y="460" width="40" height="10" as="geometry" />
        </mxCell>
        <mxCell id="pubzBBKliFy5d-iKKgvz-20" style="edgeStyle=orthogonalEdgeStyle;curved=1;rounded=0;orthogonalLoop=1;jettySize=auto;html=1;entryX=0;entryY=1;entryDx=0;entryDy=0;fontFamily=Times New Roman;fontSize=15;" edge="1" parent="1" source="pubzBBKliFy5d-iKKgvz-18" target="pubzBBKliFy5d-iKKgvz-3">
          <mxGeometry relative="1" as="geometry">
            <Array as="points">
              <mxPoint x="488" y="300" />
            </Array>
          </mxGeometry>
        </mxCell>
        <mxCell id="pubzBBKliFy5d-iKKgvz-26" style="edgeStyle=orthogonalEdgeStyle;curved=1;rounded=0;orthogonalLoop=1;jettySize=auto;html=1;entryX=0.5;entryY=1;entryDx=0;entryDy=0;fontFamily=Times New Roman;fontSize=15;exitX=0;exitY=0.5;exitDx=0;exitDy=0;" edge="1" parent="1" source="pubzBBKliFy5d-iKKgvz-18" target="QECbDP-TXOVA0_4xVjSr-1">
          <mxGeometry relative="1" as="geometry" />
        </mxCell>
        <mxCell id="pubzBBKliFy5d-iKKgvz-18" value="fetch package" style="ellipse;whiteSpace=wrap;html=1;fontFamily=Times New Roman;fontSize=15;" vertex="1" parent="1">
          <mxGeometry x="294" y="280" width="120" height="80" as="geometry" />
        </mxCell>
        <mxCell id="pubzBBKliFy5d-iKKgvz-21" value="there are packages &amp;nbsp;not attempted for delivery" style="text;html=1;strokeColor=none;fillColor=none;align=center;verticalAlign=middle;whiteSpace=wrap;rounded=0;fontFamily=Times New Roman;fontSize=15;" vertex="1" parent="1">
          <mxGeometry x="335" y="240" width="140" height="40" as="geometry" />
        </mxCell>
        <mxCell id="pubzBBKliFy5d-iKKgvz-23" value="over 10 minutes &amp;amp;&amp;amp;&amp;nbsp;there are packages &amp;nbsp;not attempted for delivery" style="text;html=1;strokeColor=none;fillColor=none;align=center;verticalAlign=middle;whiteSpace=wrap;rounded=0;fontFamily=Times New Roman;fontSize=15;" vertex="1" parent="1">
          <mxGeometry x="490" y="250" width="172" height="50" as="geometry" />
        </mxCell>
        <mxCell id="pubzBBKliFy5d-iKKgvz-27" value="all packages &amp;nbsp;have attempted for delivery" style="text;html=1;strokeColor=none;fillColor=none;align=center;verticalAlign=middle;whiteSpace=wrap;rounded=0;fontFamily=Times New Roman;fontSize=15;" vertex="1" parent="1">
          <mxGeometry x="120" y="290" width="110" height="40" as="geometry" />
        </mxCell>
        <mxCell id="pubzBBKliFy5d-iKKgvz-11" value="&lt;font style=&quot;font-size: 15px&quot; face=&quot;Times New Roman&quot;&gt;click the button on the screen&lt;/font&gt;" style="text;html=1;strokeColor=none;fillColor=none;align=center;verticalAlign=middle;whiteSpace=wrap;rounded=0;" vertex="1" parent="1">
          <mxGeometry x="580" y="340" width="130" height="50" as="geometry" />
        </mxCell>
        <mxCell id="pubzBBKliFy5d-iKKgvz-29" value="" style="rounded=0;orthogonalLoop=1;jettySize=auto;html=1;edgeStyle=orthogonalEdgeStyle;curved=1;endArrow=none;" edge="1" parent="1" source="pubzBBKliFy5d-iKKgvz-5" target="pubzBBKliFy5d-iKKgvz-11">
          <mxGeometry relative="1" as="geometry">
            <mxPoint x="710" y="310" as="sourcePoint" />
            <mxPoint x="560" y="473.63762628454765" as="targetPoint" />
            <Array as="points">
              <mxPoint x="710" y="370" />
            </Array>
          </mxGeometry>
        </mxCell>
        <mxCell id="pubzBBKliFy5d-iKKgvz-35" value="success" style="text;html=1;strokeColor=none;fillColor=none;align=center;verticalAlign=middle;whiteSpace=wrap;rounded=0;fontFamily=Times New Roman;fontSize=15;" vertex="1" parent="1">
          <mxGeometry x="370" y="440" width="60" height="30" as="geometry" />
        </mxCell>
      </root>
    </mxGraphModel>
  </diagram>
</mxfile>
